Coordinates
version=1
nRows=13
nColumns=38
inDegrees=no

Units are S.I. units (second, meters, Newtons, ...)
If the header above contains a line with 'inDegrees', this indicates whether rotational values are in degrees (yes) or radians (no).

endheader
time	pelvis_tilt	pelvis_list	pelvis_rotation	pelvis_tx	pelvis_ty	pelvis_tz	hip_flexion_r	hip_adduction_r	hip_rotation_r	knee_angle_r	ankle_angle_r	subtalar_angle_r	mtp_angle_r	hip_flexion_l	hip_adduction_l	hip_rotation_l	knee_angle_l	ankle_angle_l	subtalar_angle_l	mtp_angle_l	lumbar_extension	lumbar_bending	lumbar_rotation	arm_flex_r	arm_add_r	arm_rot_r	elbow_flex_r	pro_sup_r	wrist_flex_r	wrist_dev_r	arm_flex_l	arm_add_l	arm_rot_l	elbow_flex_l	pro_sup_l	wrist_flex_l	wrist_dev_l
0	2.76572	1.49571	2.04442	0.704646	1.79896	0.949107	0.144232	-0.124615	-0.0892725	0.40768	0.168585	0	0	0.000496765	0.0878462	-0.0760878	0.155557	0.166495	0	0	0.0869273	-0.033142	0.0500288	-0.0709193	-0.152619	-0.0604887	0.513572	1.5708	0	0	-0.0657353	-0.209962	0.550075	0.582696	1.25058	0	0
0.01	2.6724	1.49839	2.13681	0.706147	1.79875	0.94844	0.166926	-0.13052	-0.0739609	0.461189	0.172605	0	0	-0.00650692	0.0953702	-0.0771211	0.155346	0.169253	0	0	0.0762813	-0.0353684	0.0537434	-0.0666117	-0.151845	-0.068983	0.513355	1.5708	0	0	-0.0649344	-0.211812	0.542611	0.587762	1.24944	0	0
0.02	2.58559	1.49968	2.222	0.707022	1.7978	0.948087	0.189697	-0.133985	-0.058132	0.512401	0.172219	0	0	-0.0139463	0.101655	-0.0727315	0.153587	0.170057	0	0	0.069079	-0.0412273	0.058517	-0.0699836	-0.151326	-0.0665821	0.522403	1.5708	0	0	-0.0659505	-0.216344	0.536453	0.592285	1.24759	0	0
0.03	2.493	1.50214	2.31413	0.70788	1.79675	0.947859	0.210647	-0.135987	-0.045422	0.562689	0.1695	0	0	-0.0224949	0.1065	-0.0691421	0.152913	0.171733	0	0	0.0601625	-0.0462148	0.06146	-0.0731553	-0.15102	-0.0625476	0.531708	1.5708	0	0	-0.0670749	-0.221114	0.530538	0.596592	1.24421	0	0
0.04	2.41478	1.50352	2.39281	0.708699	1.7956	0.947617	0.232616	-0.136809	-0.0343967	0.611387	0.165909	0	0	-0.0289191	0.110227	-0.068389	0.153737	0.174322	0	0	0.0531111	-0.0508059	0.0632831	-0.0769288	-0.150462	-0.0582891	0.540611	1.5708	0	0	-0.0687046	-0.22568	0.524219	0.599442	1.23919	0	0
0.05	2.34555	1.50504	2.46306	0.709355	1.79457	0.947476	0.254104	-0.135688	-0.0242409	0.656573	0.161608	0	0	-0.0343952	0.112633	-0.067859	0.155471	0.177058	0	0	0.0457886	-0.0546389	0.0641603	-0.0799852	-0.14981	-0.0536577	0.549151	1.57059	0	0	-0.0699993	-0.230286	0.517505	0.601585	1.23239	0	0
0.06	2.31044	1.50324	2.49084	0.710113	1.79227	0.947112	0.279246	-0.134401	-0.00844662	0.697304	0.158023	0	0	-0.0415386	0.118008	-0.0740365	0.148299	0.176531	0	0	0.0474811	-0.0571083	0.0734134	-0.0885149	-0.151836	-0.0476368	0.558699	1.56673	0	0	-0.0758279	-0.231272	0.509276	0.59971	1.22457	0	0
0.07	2.23674	1.50878	2.58043	0.711328	1.79198	0.947461	0.291091	-0.132208	-0.015982	0.729496	0.154767	0	0	-0.0467205	0.115186	-0.0570103	0.155226	0.180135	0	0	0.033647	-0.059015	0.058356	-0.0887973	-0.151337	-0.0352958	0.568407	1.54696	0	0	-0.0735877	-0.237056	0.504505	0.600222	1.20298	0	0
0.08	2.20869	1.51087	2.61209	0.712093	1.79055	0.947556	0.308661	-0.128715	-0.0139883	0.756577	0.153711	0	0	-0.0519955	0.114288	-0.0545184	0.154323	0.181868	0	0	0.0295179	-0.0596773	0.0560906	-0.0939339	-0.152194	-0.0263414	0.577836	1.53335	0	0	-0.0750422	-0.239628	0.499123	0.59604	1.18658	0	0
0.09	2.20111	1.51272	2.62398	0.712903	1.78902	0.947677	0.325519	-0.125537	-0.0147982	0.777017	0.155213	0	0	-0.0562058	0.112623	-0.0527928	0.153038	0.183497	0	0	0.0269498	-0.0597205	0.0532585	-0.0994339	-0.153003	-0.0195779	0.58618	1.51995	0	0	-0.0764845	-0.241521	0.493894	0.589908	1.17054	0	0
0.1	2.21232	1.51452	2.61857	0.713836	1.78748	0.947822	0.341216	-0.123147	-0.0191209	0.790558	0.157725	0	0	-0.0593989	0.110295	-0.0499009	0.151697	0.184856	0	0	0.025271	-0.0591339	0.0492074	-0.104861	-0.153464	-0.0155723	0.593507	1.50825	0	0	-0.0774534	-0.242575	0.488787	0.581814	1.15561	0	0
0.11	2.23573	1.51645	2.60216	0.714886	1.7859	0.948005	0.355366	-0.121134	-0.0254386	0.797255	0.159491	0	0	-0.0621908	0.107402	-0.0452461	0.150335	0.185822	0	0	0.0238985	-0.057995	0.0442575	-0.11033	-0.153564	-0.0148382	0.59997	1.49918	0	0	-0.0780343	-0.242961	0.483863	0.572502	1.14268	0	0
0.12	2.27571	1.51809	2.56801	0.71585	1.7841	0.948138	0.369172	-0.118711	-0.0306971	0.798326	0.159665	0	0	-0.0645282	0.104184	-0.0430036	0.148498	0.186869	0	0	0.0239218	-0.0565	0.0407139	-0.116442	-0.153489	-0.0164377	0.606215	1.49133	0	0	-0.0791102	-0.242981	0.478939	0.562869	1.13164	0	0
